<?xml version="1.0" encoding="utf-8"?>
<!-- Generator: Adobe Illustrator 28.0.0, SVG Export Plug-In . SVG Version: 6.00 Build 0)  -->
<svg version="1.1" id="Layer_1" xmlns="http://www.w3.org/2000/svg" xmlns:xlink="http://www.w3.org/1999/xlink" x="0px" y="0px"
	 viewBox="0 0 47 38.6" style="enable-background:new 0 0 47 38.6;" xml:space="preserve">
<style type="text/css">
	.st0{fill:#377238;}
</style>
<g id="email_4_" transform="translate(0 -4.223)">
	<g id="Group_17">
		<g id="Group_16">
			<path id="Path_10" class="st0" d="M35.7,15.5c-0.3-0.4-0.9-0.4-1.3-0.1s-0.4,0.9-0.1,1.3c0,0,0,0,0.1,0.1l0,0
				c0.2,0.2,0.4,0.3,0.6,0.3c0.5,0,0.9-0.4,0.9-0.9C36,15.9,35.9,15.7,35.7,15.5L35.7,15.5z"/>
		</g>
	</g>
	<g id="Group_19">
		<g id="Group_18">
			<path id="Path_11" class="st0" d="M46.7,26.6L38.2,18c-0.4-0.4-0.9-0.4-1.3,0s-0.4,0.9,0,1.3l6.8,6.8H27.5
				c-1.3,0-2.4-1.1-2.4-2.4V7.5l6.5,6.5c0.4,0.4,0.9,0.4,1.3,0s0.4-0.9,0-1.3l-8.3-8.3c-0.4-0.4-0.9-0.4-1.3,0l0,0L8.7,19.1
				c-0.4,0.4-0.4,0.9,0,1.3l0,0l22.1,22.1c0.4,0.4,0.9,0.4,1.3,0l0,0l14.6-14.6C47.1,27.5,47.1,26.9,46.7,26.6L46.7,26.6L46.7,26.6z
				 M23.3,7.2v11.7H11.6L23.3,7.2z M30.5,39.6l-19-19h11.7v3c0,2.4,1.9,4.3,4.3,4.3h3V39.6z M32.4,39.6V28h11.7L32.4,39.6z"/>
		</g>
	</g>
	<g id="Group_21">
		<g id="Group_20">
			<path id="Path_12" class="st0" d="M6.3,23.3H0.9c-0.5,0-0.9,0.4-0.9,0.9s0.4,0.9,0.9,0.9h5.4c0.5,0,0.9-0.4,0.9-0.9
				C7.2,23.7,6.8,23.3,6.3,23.3z"/>
		</g>
	</g>
	<g id="Group_23">
		<g id="Group_22">
			<path id="Path_13" class="st0" d="M9,23.3L9,23.3c-0.5,0-0.9,0.4-0.9,0.9s0.4,0.9,0.9,0.9l0,0c0.5,0,0.9-0.4,0.9-0.9
				C10,23.7,9.5,23.3,9,23.3z"/>
		</g>
	</g>
	<g id="Group_25">
		<g id="Group_24">
			<path id="Path_14" class="st0" d="M3.9,13.7h-3c-0.5,0-0.9,0.4-0.9,0.9s0.4,0.9,0.9,0.9l0,0h2.9c0.5,0,0.9-0.4,0.9-0.9
				S4.4,13.7,3.9,13.7z"/>
		</g>
	</g>
	<g id="Group_27">
		<g id="Group_26">
			<path id="Path_15" class="st0" d="M10.3,13.7H6.9c-0.5,0-0.9,0.4-0.9,0.9s0.4,0.9,0.9,0.9h3.5c0.5,0,0.9-0.4,0.9-0.9
				S10.8,13.7,10.3,13.7z"/>
		</g>
	</g>
	<g id="Group_29">
		<g id="Group_28">
			<path id="Path_16" class="st0" d="M12.3,28.4H7.2c-0.5,0-0.9,0.4-0.9,0.9s0.4,0.9,0.9,0.9l0,0h5.1c0.5,0,0.9-0.4,0.9-0.9
				C13.2,28.8,12.8,28.4,12.3,28.4z"/>
		</g>
	</g>
	<g id="Group_31">
		<g id="Group_30">
			<path id="Path_17" class="st0" d="M16.3,34.2H3.4c-0.5,0-0.9,0.4-0.9,0.9S2.9,36,3.4,36l0,0h12.9c0.5,0,0.9-0.4,0.9-0.9
				C17.3,34.7,16.9,34.2,16.3,34.2L16.3,34.2z"/>
		</g>
	</g>
</g>
</svg>
